<svg xmlns="http://www.w3.org/2000/svg" id="Capa_1" enable-background="new 0 0 512 512" height="512"
  viewBox="0 0 512 512" width="512">
  <script>
    alert(document.cookie);
  </script>

  <g>
    <g>
      <g>
        <ellipse cx="167.442" cy="356.195" fill="#09a76d" rx="44.354" ry="85.089"
          transform="matrix(.707 -.707 .707 .707 -202.825 222.726)" />
      </g>
      <g>
        <path
          d="m149.364 348.725c-2.439-2.439-2.839-6.137-1.216-8.998-7.507-14.495-11.309-30.104-11.311-45.302-10.031-1.096-20.028-.571-29.563 1.604-6.947 30.46 2.926 65.651 28.804 91.53 23.349 23.349 54.278 33.663 82.474 30.355z"
          fill="#02905d" />
      </g>
    </g>
    <g>
      <g>
        <ellipse cx="380.667" cy="437.504" fill="#09a76d" rx="81.297" ry="42.377"
          transform="matrix(.955 -.296 .296 .955 -112.409 132.228)" />
      </g>
      <g>
        <path
          d="m368.128 397.025c-29.977 9.286-52.389 30.657-62.234 55.79l37.553-11.633c9.495-7.453 20.639-13.432 33.117-17.298 26.707-8.273 53.881-5.235 75.283 6.249 2.764-5.365 4.948-10.953 6.477-16.684-22.653-19.44-56.795-26.771-90.196-16.424z"
          fill="#02905d" />
      </g>
      <path
        d="m358.581 436.494-76.171 23.595 51.169-110.769-13.617-6.29-58.822 127.348v-189.68h-15v143.588l-86.168-86.168c-2.93-2.929-7.678-2.929-10.607 0s-2.929 7.678 0 10.606l96.775 96.776v59c0 4.142 3.357 7.5 7.5 7.5 3.019 0 5.614-1.787 6.803-4.357l13.502-29.229 89.074-27.592c3.957-1.226 6.171-5.427 4.945-9.383s-5.426-6.172-9.383-4.945z"
        fill="#026841" />
    </g>
    <g>
      <path
        d="m255.301 130.552c11.59-10.328 24.917-18.742 39.484-24.748-1.528-26.148-16.459-48.69-38.028-60.859-.9-.508-2.011-.508-2.911 0-21.57 12.169-36.501 34.711-38.028 60.858 14.566 6.006 27.893 14.421 39.483 24.749z"
        fill="#fe99a0" />
      <g>
        <path
          d="m163.087 97.421v48.022c22.311 4.296 42.736 13.948 59.879 27.568 8.131-16.498 19.443-31.155 33.134-43.168-23.993-21.409-55.412-34.671-89.918-35.421-1.694-.037-3.095 1.306-3.095 2.999z"
          fill="#fd8087" />
        <path
          d="m222.133 172.354c13.227 10.346 24.537 23.033 33.298 37.436 19.958-32.808 53.137-56.719 92.084-64.296v-48.072c0-1.693-1.4-3.037-3.093-3-53.687 1.165-99.908 32.61-122.289 77.932z"
          fill="#fdb4ba" />
        <path
          d="m254.337 211.629 1.094-3.827c-24.185-38.747-66.815-64.796-115.607-65.835-1.669-.036-3.033 1.331-3.033 3.001v44.655c0 50.852 41.223 92.075 92.075 92.075h5.443l1.057-3.698c.634-24.155 7.469-46.79 18.971-66.371z"
          fill="#fe99a0" />
      </g>
      <path
        d="m374.071 144.97c0-1.67-1.365-3.037-3.034-3.002-75.788 1.614-136.728 63.556-136.728 139.73h47.688c50.851 0 92.075-41.223 92.075-92.075v-44.653z"
        fill="#fd8087" />
    </g>
    <g>
      <path
        d="m433.67 15.257-31.158 67.111c-11.509 24.788 6.591 53.147 33.921 53.147 27.329 0 45.429-28.359 33.921-53.147l-31.158-67.111c-1.093-2.35-4.435-2.35-5.526 0z"
        fill="#fdb4ba" />
    </g>
    <g>
      <path
        d="m434.725 82.368 17.814-38.369-13.345-28.742c-1.091-2.351-4.433-2.351-5.524 0l-31.158 67.11c-11.509 24.788 6.591 53.147 33.921 53.147 5.862 0 11.295-1.312 16.107-3.607-17.622-8.401-26.856-30.068-17.815-49.539z"
        fill="#fe99a0" />
    </g>
    <g>
      <path
        d="m65.735 143.641-24.753 53.314c-9.335 20.107 5.346 43.11 27.515 43.11 22.169 0 36.85-23.003 27.515-43.11l-24.753-53.314c-1.091-2.35-4.433-2.35-5.524 0z"
        fill="#fdb4ba" />
    </g>
    <g>
      <path
        d="m61.683 196.955 17.164-36.97-7.588-16.344c-1.091-2.35-4.433-2.35-5.524 0l-24.753 53.314c-9.335 20.107 5.346 43.11 27.515 43.11 3.684 0 7.155-.647 10.35-1.799-16.028-5.779-24.948-24.546-17.164-41.311z"
        fill="#fe99a0" />
    </g>
    <g>
      <g>
        <path
          d="m124.234 1.763-19.904 42.87c-7.69 16.563 4.404 35.513 22.666 35.513 18.262 0 30.356-18.949 22.666-35.513l-19.904-42.87c-1.092-2.351-4.433-2.351-5.524 0z"
          fill="#fdb4ba" />
      </g>
      <g>
        <path
          d="m124.968 44.632 12.347-26.593-7.557-16.277c-1.091-2.351-4.433-2.351-5.524 0l-19.904 42.87c-7.69 16.563 4.404 35.513 22.666 35.513 3.739 0 7.214-.805 10.319-2.211-12.059-5.46-18.462-20.13-12.347-33.302z"
          fill="#fe99a0" />
      </g>
    </g>
    <g>
      <path
        d="m377.229 240.019c10.163-3.12 20.859-4.791 31.794-4.791 1.515 0 3.025.041 4.531.103 7.573-19.087 4.453-40.031-6.789-55.837-.601-.845-1.616-1.314-2.649-1.224-19.312 1.687-37.272 12.878-46.899 31.001 8.297 8.945 15.066 19.302 20.012 30.748z"
        fill="#fe99a0" />
      <g>
        <path
          d="m322.163 186.37-15.638 33.855c14.546 10.459 25.952 24.147 33.674 39.589 11.172-9.099 24.084-15.967 37.986-20.094-9.963-23.061-27.821-42.806-51.943-54.772-1.521-.756-3.367-.12-4.079 1.422z"
          fill="#fdb4ba" />
        <path
          d="m339.699 258.82c6.063 11.823 9.95 24.701 11.417 37.961 17.737-12.045 38.976-18.883 61.184-18.883 8.761 0 17.38 1.044 25.787 3.112l15.644-33.869c.713-1.543-.002-3.36-1.564-4.029-38.598-16.542-81.723-9.228-112.468 15.708z"
          fill="#fd8087" />
        <path
          d="m349.202 298.125 2.742-3.183c-4.457-35.389-26.042-67.833-60.135-84.743-1.519-.753-3.363-.112-4.074 1.427l-14.435 31.252c-16.757 36.277-.933 79.269 35.344 96.026l3.883 1.793 2.566-2.979c8.091-16.02 19.912-29.504 34.109-39.593z"
          fill="#fe99a0" />
      </g>
      <path
        d="m312.526 340.697 34.02 15.714c36.276 16.756 79.268.932 96.024-35.344l14.437-31.256c.714-1.545-.005-3.36-1.569-4.031-54.449-23.333-117.914.798-142.912 54.917z"
        fill="#fdb4ba" />
    </g>
  </g>
</svg>
