<svg xmlns="http://www.w3.org/2000/svg" height="512" viewBox="0 0 64 64" width="512">
  <g id="Flat">
    <g id="Stroke_copy_2" data-name="Stroke copy 2">
      <g>
        <g>
          <path d="m26 18.664h-4v-8a2 2 0 0 1 .891-1.664l9-6 2.218 3.328-8.109 5.406z" fill="#f9e109" />
          <path
            d="m34.11 6.33-8.11 5.4v6.93h-4v-8a1.994 1.994 0 0 1 .89-1.66l1.01-.68a5.35 5.35 0 0 0 4.82-.75l4.19-3.05z"
            fill="#fcbc04" />
          <path d="m35 61h-22l-4-35h30z" fill="#f8664f" />
          <path d="m11 22h26a2 2 0 0 1 2 2v2a0 0 0 0 1 0 0h-30a0 0 0 0 1 0 0v-2a2 2 0 0 1 2-2z" fill="#84d2f4" />
          <path d="m16 18h16a2 2 0 0 1 2 2v2a0 0 0 0 1 0 0h-20a0 0 0 0 1 0 0v-2a2 2 0 0 1 2-2z" fill="#84d2f4" />
          <path d="m38.66 29h-22.66a34.147 34.147 0 0 0 21.53 9.9l-2.53 22.1h-22l-4-35h30z" fill="#cc5144" />
          <g fill="#57b7eb">
            <path d="m39 24v2h-30v-2a2.006 2.006 0 0 1 2-2 2.006 2.006 0 0 0 2 2z" />
            <path d="m34 20v2h-20v-2a2.006 2.006 0 0 1 2-2 2.006 2.006 0 0 0 2 2z" />
          </g>
        </g>
        <g>
          <path d="m45 23-2 25-1 11 5 1 3-36-3-1.6z" fill="#e59730" />
          <path d="m39 28 2 24h6l-2-25-3-3z" fill="#fcbc04" />
          <path d="m47 52h-6l-2-24 1.18-1.57 1.82 14.57h1l1.09-6.36.91-.64.61.61z" fill="#e59730" />
          <path d="m37 31-2.963-1.018-1.037 3.018 5 16 4.667-2z" fill="#f9e109" />
          <path d="m42.67 47-4.67 2-5-16 1.02-2.95 1.83 5.5a17.733 17.733 0 0 0 5.66 8.18z" fill="#fcbc04" />
          <path d="m55 24-4.079 19h4.079l3-14z" fill="#f9e109" />
          <path d="m54.848 33.325 1.6-6.918-1.448-2.407-4.079 19h4.079l1.363-6.359a3 3 0 0 1 -1.515-3.316z"
            fill="#fcbc04" />
          <path d="m27 30 7 19 4-1-7-18z" fill="#f9e109" />
          <path d="m27 30 7 19 2-.5-7.142-18.5z" fill="#fcbc04" />
          <path d="m49 27-3 24 4-1 4-21z" fill="#f9e109" />
          <path d="m51.72 40.97-1.72 9.03-4 1 3-24 1.94.78-.8 11.23a1.856 1.856 0 0 0 1.58 1.96z" fill="#fcbc04" />
          <path d="m48 52h-4l1-18 4 1z" fill="#f9e109" />
          <path d="m46.732 42.567.226-8.077-1.958-.49-1 18h4l.393-6.674a3 3 0 0 1 -1.661-2.759z" fill="#fcbc04" />
          <path d="m53 39c0 3.866-4.029 7-9 7s-9-3.134-9-7h-5l3 22h22l3-22z" fill="#84d2f4" />
          <path d="m55.55 57-.55 4h-22l-3-22h5a6.112 6.112 0 0 0 2.07 4.46 15.991 15.991 0 0 0 15.81 13.54z"
            fill="#57b7eb" />
          <circle cx="44" cy="54" fill="#f9e109" r="3" />
          <path d="m46.49 55.67a3 3 0 0 1 -5.49-1.67 2.947 2.947 0 0 1 .54-1.71 15.951 15.951 0 0 0 4.95 3.38z"
            fill="#fcbc04" />
        </g>
        <g>
          <path d="m30 51h-18a4 4 0 0 1 -4-4 4 4 0 0 1 4-4h18a4 4 0 0 1 4 4 4 4 0 0 1 -4 4z" fill="#f89c8d" />
          <path
            d="m32 49a3.931 3.931 0 0 0 1.64-.36 3.865 3.865 0 0 1 -.81 1.19 4.025 4.025 0 0 1 -2.83 1.17h-18a4 4 0 0 1 -2.83-6.83 3.865 3.865 0 0 1 1.19-.81 3.931 3.931 0 0 1 1.64-.36h18a4 4 0 0 1 2.64 1 3.833 3.833 0 0 1 1.1 1.6 2.116 2.116 0 0 1 -1.85 1.09 2.163 2.163 0 0 1 -.95-.22 2.076 2.076 0 0 0 -1.88 0l-2.12 1.06a2.076 2.076 0 0 1 -1.88 0l-2.12-1.06a2.076 2.076 0 0 0 -1.88 0l-2.12 1.06a2.076 2.076 0 0 1 -1.88 0l-2.12-1.06a2.076 2.076 0 0 0 -1.88 0l-1.61.81a3.1 3.1 0 0 1 -.58.21 3.984 3.984 0 0 0 3.13 1.51z"
            fill="#f8664f" />
          <path d="m6 55h30a0 0 0 0 1 0 0v2a4 4 0 0 1 -4 4h-22a4 4 0 0 1 -4-4v-2a0 0 0 0 1 0 0z" fill="#fcbc04" />
          <path d="m23.8 55-.8 1-.8-1z" fill="#e59730" />
          <path d="m23.8 55-.8 1-.8-1z" fill="#e59730" />
          <path d="m32 55h-22a2 2 0 0 1 -2-2 2 2 0 0 1 2-2h22a2 2 0 0 1 2 2 2 2 0 0 1 -2 2z" fill="#cc5144" />
          <path d="m24 56-4-5h8z" fill="#f7f754" />
          <path d="m23.657 52.072-.857-1.072h-2.8l4 5 2.265-2.831a2.974 2.974 0 0 1 -2.608-1.097z" fill="#f9e109" />
          <path
            d="m7 43a3.234 3.234 0 0 0 1.789 2.894l.764.382a3.232 3.232 0 0 0 2.894 0l1.609-.8a2.112 2.112 0 0 1 1.888 0l2.112 1.056a2.112 2.112 0 0 0 1.888 0l2.112-1.056a2.112 2.112 0 0 1 1.888 0l2.112 1.056a2.112 2.112 0 0 0 1.888 0l2.112-1.056a2.112 2.112 0 0 1 1.888 0 2.112 2.112 0 0 0 3.056-1.892v-.584z"
            fill="#c4f236" />
          <path d="m26 33h-10a10 10 0 0 0 -10 10h30a10 10 0 0 0 -10-10z" fill="#fcbc04" />
          <path d="m36 43h-30a10 10 0 0 1 7.32-9.63 9 9 0 0 0 8.68 6.63h13.54a9.908 9.908 0 0 1 .46 3z"
            fill="#e59730" />
          <path d="m36 57a4 4 0 0 1 -4 4h-22a4 4 0 0 1 -4-4v-2h2.13a3.992 3.992 0 0 0 3.87 3h21a4.941 4.941 0 0 0 3-1z"
            fill="#e59730" />
          <path
            d="m35 43v.58a1.424 1.424 0 0 1 -.05.42h-26.25a3.058 3.058 0 0 0 1.09.89l.76.39a3.284 3.284 0 0 0 2.9 0l1.61-.81a2.076 2.076 0 0 1 1.88 0l2.12 1.06a2.076 2.076 0 0 0 1.88 0l2.12-1.06a2.076 2.076 0 0 1 1.88 0l2.12 1.06a2.076 2.076 0 0 0 1.88 0l2.12-1.06a2.076 2.076 0 0 1 1.88 0 2.1 2.1 0 0 0 1.86.01 2.119 2.119 0 0 1 -1.91 1.21 2.163 2.163 0 0 1 -.95-.22 2.076 2.076 0 0 0 -1.88 0l-2.12 1.06a2.076 2.076 0 0 1 -1.88 0l-2.12-1.06a2.076 2.076 0 0 0 -1.88 0l-2.12 1.06a2.076 2.076 0 0 1 -1.88 0l-2.12-1.06a2.076 2.076 0 0 0 -1.88 0l-1.61.81a3.284 3.284 0 0 1 -2.9 0l-.76-.39a3.21 3.21 0 0 1 -1.79-2.89z"
            fill="#a1d51c" />
          <g>
            <g fill="#f9e109">
              <circle cx="23" cy="37" r="1" />
              <circle cx="19" cy="36" r="1" />
              <circle cx="16" cy="38" r="1" />
              <circle cx="31" cy="38" r="1" />
            </g>
            <circle cx="12" cy="37" fill="#fcbc04" r="1" />
            <circle cx="27" cy="36" fill="#f9e109" r="1" />
          </g>
          <path d="m16.91 38.42a1 1 0 0 1 -1.91-.42 1.022 1.022 0 0 1 .44-.83h.01a8.693 8.693 0 0 0 1.46 1.25z"
            fill="#fcbc04" />
        </g>
      </g>
    </g>
  </g>
</svg>
