<svg xmlns="http://www.w3.org/2000/svg" id="Capa_1" enable-background="new 0 0 512 512" height="512"
  viewBox="0 0 512 512" width="512">
  <g>
    <g>
      <path
        d="m166.099 164.945v70.951h31.794v-70.956c0-12.068 4.708-23.723 13.313-32.183 7.685-7.556 12.451-18.07 12.451-29.699 0-1.041-.052-2.07-.127-3.092-2.584 3.405-6.662 5.618-11.256 5.618h-16.261l-.163.801c-1.331 6.554-7.158 11.311-13.856 11.311s-12.525-4.757-13.855-11.311l-.163-.801h-16.261c-4.525 0-8.646-2.176-11.258-5.605-.023.316-.055.629-.07.947-.624 12.516 4.279 23.894 12.482 31.914 8.602 8.408 13.23 20.076 13.23 32.105z"
        fill="#fac600" />
      <path
        d="m166.099 164.945v70.951h15.857v-77.232c0-12.028-4.628-23.696-13.229-32.105-5.731-5.603-9.843-12.849-11.593-20.974h-5.417c-4.526 0-8.648-2.177-11.26-5.608-.023.316-.053.631-.068.95-.624 12.516 4.28 23.894 12.482 31.914 8.6 8.407 13.228 20.075 13.228 32.104z"
        fill="#e8b800" />
      <g fill="#fedf30">
        <path
          d="m301.027 256.352v-15.975c0-3.028-2.454-5.482-5.482-5.482h-227.098c-3.028 0-5.482 2.454-5.482 5.482v15.975z" />
        <path d="m62.965 269.352v21.457l2.905 1.031h232.142l3.015-1.031v-21.457z" />
      </g>
      <g>
        <g>
          <path
            d="m324.585 344.777-23.557-53.967h-238.063l-23.557 53.967c-2.324 5.325-3.993 10.831-5.048 16.408l4.855 1h80.871c11.548-22.471 34.955-37.89 61.91-37.89 26.956 0 50.362 15.419 61.91 37.89h81.015l4.726-1c-1.057-5.578-2.738-11.083-5.062-16.408z"
            fill="#fac600" />
        </g>
        <g>
          <path
            d="m307.328 423.435h-62.368c-11.135 23.619-35.166 40.011-62.963 40.011s-51.828-16.391-62.963-40.011h-61.978l-6.635 1 54.784 76.161c5.15 7.16 13.431 11.404 22.251 11.404h109.081c8.82 0 17.101-4.244 22.251-11.404l54.784-76.161z"
            fill="#fac600" />
        </g>
      </g>
      <g fill="#fac600">
        <path
          d="m105.683 256.352v-15.975c0-3.028 2.454-5.482 5.482-5.482h-42.718c-3.028 0-5.482 2.454-5.482 5.482v15.975z" />
        <path d="m105.683 269.352h-42.718v21.457l2.905 1.031h42.717l-2.904-1.031z" />
      </g>
      <g>
        <g>
          <path
            d="m62.965 290.809-23.557 53.967c-2.325 5.325-3.993 10.83-5.048 16.408h42.703c1.057-5.578 2.738-11.082 5.063-16.408l23.557-53.967z"
            fill="#e8b800" />
        </g>
        <path
          d="m147.923 500.596-54.784-76.161h-42.718l54.784 76.161c5.15 7.16 13.431 11.404 22.251 11.404h42.718c-8.82 0-17.101-4.244-22.251-11.404z"
          fill="#e8b800" />
      </g>
      <g>
        <path
          d="m301.996 270.352h-240c-4.142 0-7.5-3.358-7.5-7.5s3.358-7.5 7.5-7.5h240c4.142 0 7.5 3.358 7.5 7.5s-3.358 7.5-7.5 7.5z"
          fill="#e8b800" />
      </g>
    </g>
    <g fill="#c8effe">
      <path
        d="m112.421 393.87c0-11.808 2.966-22.933 8.178-32.685h-86.254c-3.872 20.423.673 41.836 13.097 59.109l2.979 4.141h69.09c-4.534-9.232-7.09-19.604-7.09-30.565z" />
      <path
        d="m329.647 361.185h-86.254c5.212 9.751 8.178 20.877 8.178 32.685 0 10.961-2.556 21.333-7.091 30.565h69.09l2.979-4.141c12.426-17.274 16.97-38.686 13.098-59.109z" />
    </g>
    <g>
      <path
        d="m34.345 361.185c-3.872 20.423.673 41.836 13.097 59.109l2.979 4.141h42.718l-2.979-4.141c-12.425-17.273-16.969-38.685-13.097-59.109z"
        fill="#99e6fc" />
    </g>
    <path
      d="m434.52 59.348c0-5.192 1.832-9.962 4.88-13.705h-182.705v27.409h182.705c-3.048-3.742-4.88-8.513-4.88-13.704z"
      fill="#ca6e59" />
    <g>
      <circle cx="456.259" cy="59.348" fill="#a44f3e" r="22.739" />
    </g>
    <g>
      <path
        d="m454.823 59.348c0-8.709 4.898-16.27 12.087-20.09-3.178-1.688-6.802-2.649-10.651-2.649-12.558 0-22.739 10.181-22.739 22.739s10.18 22.739 22.739 22.739c3.85 0 7.474-.96 10.651-2.649-7.189-3.82-12.087-11.382-12.087-20.09z"
        fill="#883f2e" />
    </g>
    <g>
      <path
        d="m246.209 32.702h-19.794v53.292h19.794c6.343 0 11.485-5.142 11.485-11.485v-30.322c.001-6.343-5.142-11.485-11.485-11.485z"
        fill="#ffbd86" />
      <path
        d="m137.577 91.444v-64.193c0-1.04.121-2.051.335-3.028h-16.474c-8.361 0-15.14 6.778-15.14 15.14v39.969c0 8.361 6.778 15.14 15.14 15.14h16.474c-.214-.977-.335-1.988-.335-3.028z"
        fill="#ffbd86" />
      <g fill="#f6a96c">
        <path
          d="m212.276 12.112h-16.475c.214.977.335 1.988.335 3.028v88.416c0 1.04-.121 2.051-.335 3.028h16.475c8.361 0 15.14-6.778 15.14-15.14v-64.193c-.001-8.361-6.779-15.139-15.14-15.139z" />
        <path
          d="m167.856 103.555v-88.415c0-1.04.121-2.051.335-3.028h-16.474c-8.361 0-15.14 6.778-15.14 15.14v64.192c0 8.361 6.778 15.14 15.14 15.14h16.474c-.214-.977-.335-1.989-.335-3.029z" />
      </g>
      <g>
        <path
          d="m181.996 118.695c-8.361 0-15.14-6.778-15.14-15.14v-88.415c0-8.361 6.778-15.14 15.14-15.14 8.361 0 15.14 6.778 15.14 15.14v88.416c0 8.361-6.778 15.139-15.14 15.139z"
          fill="#ffbd86" />
      </g>
    </g>
    <g>
      <g>
        <path
          d="m259.383 195.734-13.416-23.236c-.552-.956-.552-2.134 0-3.091l13.416-23.236c.552-.956 1.572-1.545 2.676-1.545h26.831c1.104 0 2.124.589 2.676 1.545l13.415 23.236c.552.956.552 2.134 0 3.09l-13.415 23.236c-.552.956-1.572 1.545-2.676 1.545h-26.831c-1.104.002-2.124-.587-2.676-1.544z"
          fill="#fac600" />
      </g>
      <g>
        <path
          d="m280.129 195.734-13.416-23.236c-.552-.956-.552-2.134 0-3.091l13.416-23.236c.552-.956 1.572-1.545 2.676-1.545h-20.747c-1.104 0-2.124.589-2.676 1.545l-13.416 23.236c-.552.956-.552 2.134 0 3.091l13.416 23.236c.552.956 1.572 1.545 2.676 1.545h20.747c-1.103.001-2.124-.588-2.676-1.545z"
          fill="#e8b800" />
      </g>
      <g>
        <path
          d="m74.425 151.918-9.238-16c-.38-.658-.38-1.47 0-2.128l9.238-16c.38-.658 1.083-1.064 1.843-1.064h18.475c.76 0 1.463.406 1.843 1.064l9.238 16c.38.658.38 1.47 0 2.128l-9.238 16c-.38.658-1.083 1.064-1.843 1.064h-18.475c-.761 0-1.463-.406-1.843-1.064z"
          fill="#fac600" />
      </g>
      <g>
        <path
          d="m91.42 151.918-9.238-16c-.38-.658-.38-1.47 0-2.128l9.238-16c.38-.658 1.083-1.064 1.843-1.064h-16.995c-.76 0-1.463.406-1.843 1.064l-9.238 16c-.38.658-.38 1.47 0 2.128l9.238 16c.38.658 1.083 1.064 1.843 1.064h16.996c-.761 0-1.464-.406-1.844-1.064z"
          fill="#e8b800" />
      </g>
    </g>
    <g>
      <circle cx="181.996" cy="393.87" fill="#a44f3e" r="63.075" />
    </g>
    <g>
      <path
        d="m150.919 393.87c0-29.307 19.989-53.94 47.076-61.023-5.11-1.336-10.471-2.053-15.999-2.053-34.836 0-63.075 28.24-63.075 63.075s28.24 63.075 63.075 63.075c5.529 0 10.889-.717 15.999-2.053-27.086-7.081-47.076-31.715-47.076-61.021z"
        fill="#883f2e" />
    </g>
    <g>
      <path
        d="m181.996 464.445c-38.916 0-70.575-31.66-70.575-70.576 0-38.915 31.66-70.575 70.575-70.575s70.576 31.66 70.576 70.575c0 38.916-31.66 70.576-70.576 70.576zm0-126.151c-30.644 0-55.575 24.931-55.575 55.575 0 30.645 24.931 55.576 55.575 55.576 30.645 0 55.576-24.931 55.576-55.576 0-30.643-24.931-55.575-55.576-55.575z"
        fill="#fee97d" />
    </g>
  </g>
</svg>
