<svg id="Layer_1" enable-background="new 0 0 510 510" height="512" viewBox="0 0 510 510" width="512"
  xmlns="http://www.w3.org/2000/svg">
  <g>
    <path id="XMLID_1471_"
      d="m151.538 32.79-9.205 176.877 44.667 90.333 68-15 23.03-130-23.03-155c-37.605 0-73.443 11.629-103.462 32.79z"
      fill="#99baff" />
    <path id="XMLID_1719_"
      d="m255.108 359.999c43.884-.027 85.66-15.926 118.429-44.661l31.896-234.06c-32.964-50.065-88.939-81.278-150.433-81.278v285l2 2 4.258 22"
      fill="#6599fe" />
    <path d="m255 480 8.5-24-8.5-21-26-11-34 3.94v52.06h-45v30h105l10-15z" fill="#474f54" />
    <path d="m315 480v-52.06l-30-12.15-30 19.21v75h105v-30z" fill="#31383e" />
    <path id="XMLID_3466_"
      d="m30.494 195h45.13l14.376-15-14.376-15c-18.989 0-63.441 0-75.624 0v15c0 140.075 113.204 255 255 255l10-15-10-15c-119.416 0-216.783-93.3-224.506-210z"
      fill="#585f64" />
    <path id="XMLID_3461_"
      d="m510 172.5v-7.5c-12.01 0-56.637 0-75.627 0l-14.373 15 15 15h44.506c-7.732 116.825-105.216 210-224.506 210v30c107.793 0 198.074-66.481 235.718-157.362 22.553-54.448 18.866-100.459 19.282-105.138z"
      fill="#474f54" />
    <path id="XMLID_3040_"
      d="m391.03 86.59c-4.71 1.883-28.421 11.365-38.061 15.22-5.138 2.063-9.346 5.93-11.81 10.87-.718 1.434-6.275 12.54-6.98 13.95-2.679 5.357-3.12 11.559-1.22 17.24 2.046 6.138 3.804 11.412 5.85 17.55 3.551 10.661-1.28 22.31-11.329 27.34-7.652 3.826-12.48 11.635-12.48 20.2v14.76c0 9.72 6.221 18.35 15.44 21.43 1.412.471 16.064 5.352 17.801 5.93 7.322 2.441 12.891 8.462 14.77 15.95.408 1.63-.545-2.178 7.66 30.63 1.003 6.183 1.864 11.495 2.867 17.678 68.021-59.649 80.988-159.503 31.896-234.06-.767.283 1.023-.378-14.404 5.312z"
      fill="#9ddb2c" />
    <path id="XMLID_3036_"
      d="m248.51 278.51c-5.321-5.321-12.652-8.51-20.55-8.51-11.006 0-21.07-6.219-25.99-16.07-5.191-10.374-5.514-11.259-7.275-13.705-2.122-2.945-3.727-4.152-7.935-8.466l-4.91-4.91c-9.795-9.797-11.323-25.146-3.63-36.67 2.498-3.749 12.348-18.532 12.5-18.76 1.4-2.105 3.066-4.007 4.945-5.666 3.518-3.104 6.758-4.422 7.36-4.764.521-.377 9.602-3.702 14.529-14.415 2.69-5.848 3.445-12.585 1.795-19.195-.584-2.333-6.686-26.722-7.399-29.57-1.281-5.115-3.925-9.785-7.641-13.5-4.709-4.709-36.648-36.647-41.3-41.3-.902-.804-10.307-9.182-11.472-10.22-23.503 16.567-42.881 38.613-56.259 64.263-35.586 68.235-24.125 153.54 32.501 210.167 32.595 32.595 77.595 52.781 127.221 52.781l6.258-42.5-6.258-32.5-3.245-3.245z"
      fill="#c4e83c" />
    <path id="XMLID_1496_"
      d="m261.02 344.89c.454-2.269 5.379-26.882 5.931-29.64.955-4.765.685-9.61-.683-14.122-2.65-8.747-8.315-12.968-9.268-14.128l-2-2v75c.028 0 .042-.001.108-.001.607-1.551-2.189 5.597 5.912-15.109z"
      fill="#9ddb2c" />
  </g>
</svg>
