<svg xmlns="http://www.w3.org/2000/svg" id="Capa_1" enable-background="new 0 0 512 512" height="512"
  viewBox="0 0 512 512" width="512">
  <g>
    <g>
      <path
        d="m421.825 467.515c7.609 0 15.01 1.417 21.904 4.021 2.618-12.301 6.833-25.517 13.397-39.131 24.977-51.805-9.606-119.707-19.016-136.479-.522-.931-1.942-.505-1.866.56 1.094 15.447 2.864 68.781-19.133 119.97-7.33 17.056-8.059 35.016-5.423 51.902 3.317-.554 6.704-.843 10.137-.843z"
        fill="#017b4e" />
      <path
        d="m421.825 467.515c3.632 0 7.215.332 10.721.95-2.656-16.918-1.939-34.917 5.406-52.009 11.868-27.618 16.817-55.858 18.687-78.438-6.498-19.576-14.652-35.177-18.529-42.091-.522-.931-1.941-.504-1.866.56 1.094 15.448 2.863 68.781-19.133 119.969-7.33 17.057-8.059 35.016-5.423 51.902 3.317-.554 6.704-.843 10.137-.843z"
        fill="#026841" />
      <path
        d="m217.182 466.77c3.765 2.859 7.285 6.023 10.537 9.437 9.396-5.543 20.26-8.693 31.616-8.693 9.302 0 18.239 2.02 26.327 5.769-21.725-38.448-61.173-129.836-16.196-228.577 49.549-108.78 9.696-204.977-11.336-243.58-1.223-2.244-4.64-.837-3.912 1.612 11.028 37.086 26.39 123.125-23.474 226.019-44.854 92.556-36.79 181.28-26.566 229.812 4.522 2.336 8.872 5.065 13.004 8.201z"
        fill="#09a76d" />
      <path
        d="m217.182 466.77c3.765 2.859 7.285 6.023 10.537 9.437.605-.357 1.215-.703 1.832-1.04-11.219-42.453-27.966-141.993 22.636-246.409 27.783-57.329 35.312-109.42 34.63-150.733-7.432-33.72-19.755-60.504-28.686-76.898-1.223-2.244-4.64-.837-3.912 1.612 11.029 37.086 26.39 123.125-23.474 226.019-44.854 92.556-36.79 181.28-26.566 229.812 4.521 2.335 8.871 5.064 13.003 8.2z"
        fill="#02905d" />
      <path
        d="m152.123 449.555c3.794-.499 7.646-.77 11.545-.77 7.104 0 14.072.835 20.813 2.451.149-23.455-5.01-49.202-19.437-75.748-52.406-96.431-58.354-131.168-28.367-217.755.391-1.129-1.082-1.96-1.828-1.026-16.802 21.067-81.35 113.157-17.519 214.921 18.016 28.722 28.783 54.856 34.793 77.927z"
        fill="#09a76d" />
      <path
        d="m152.123 449.555c3.794-.499 7.646-.77 11.545-.77 3.171 0 6.311.181 9.42.507-6.023-23.007-16.779-49.052-34.725-77.663-34.643-55.231-31.467-107.606-18.636-147.329 2.278-19.589 8.02-40.777 16.951-66.566.391-1.129-1.082-1.96-1.827-1.026-16.802 21.067-81.35 113.157-17.519 214.921 18.014 28.721 28.781 54.855 34.791 77.926z"
        fill="#02905d" />
      <path
        d="m407.803 469.143c4.54-1.06 9.236-1.629 14.022-1.629 5.53 0 10.95.749 16.146 2.155 1.317-25.32-3.33-53.612-19.232-82.873-52.406-96.431-58.354-131.168-28.367-217.755.391-1.129-1.082-1.96-1.827-1.026-16.802 21.067-81.35 113.157-17.519 214.921 20.206 32.214 31.293 61.173 36.777 86.207z"
        fill="#09a76d" />
      <path
        d="m407.803 469.143c4.54-1.06 9.236-1.629 14.022-1.629 2.171 0 4.322.124 6.452.349-5.579-24.74-16.628-53.26-36.49-84.927-35.035-55.855-31.392-108.791-18.2-148.673 2.38-19.216 8.057-40.021 16.785-65.222.391-1.129-1.082-1.96-1.828-1.026-16.802 21.067-81.35 113.157-17.519 214.921 20.207 32.214 31.294 61.173 36.778 86.207z"
        fill="#02905d" />
      <path
        d="m181.916 450.658c8.334 1.736 16.336 4.675 23.837 8.744 14.612-32.573 22.613-74.527 7.82-123.256-35.485-116.893-34.089-155.925 18.267-243.806.61-1.025-.664-2.132-1.583-1.373-22.097 18.256-114.721 104.328-67.72 230.293 19.839 53.166 23.093 96.259 19.379 129.398z"
        fill="#017b4e" />
      <path
        d="m181.916 450.658c6.994 1.457 13.757 3.756 20.185 6.863 4.982-33.972 2.765-79.333-18.477-136.261-28.714-76.952-5.318-139.012 22.273-179.822 6.578-15.036 15.182-31.034 25.944-49.098.61-1.025-.664-2.132-1.583-1.373-22.097 18.256-114.721 104.328-67.72 230.292 19.838 53.167 23.092 96.26 19.378 129.399z"
        fill="#026841" />
      <path
        d="m225.922 477.306 1.921-2.426c-16.275-16.708-39.005-27.094-64.175-27.094-39.112 0-72.354 25.059-84.592 59.992-.723 2.064.839 4.222 3.026 4.222h116.348l1.781-2.249c4.68-13.64 13.926-24.967 25.691-32.445z"
        fill="#ffbd86" />
      <path
        d="m287.875 474.36c1.656-17.237 6.211-37.382 16.379-58.472 24.977-51.805-9.606-119.707-19.016-136.479-.522-.931-1.942-.505-1.866.56 1.094 15.447 2.864 68.781-19.133 119.97-9.664 22.49-7.862 46.55-1.985 67.649 9.099.416 17.797 2.759 25.621 6.772z"
        fill="#09a76d" />
      <path
        d="m285.127 473.037c-7.101-22.34-10.149-48.646.358-73.097 11.698-27.221 16.672-55.046 18.603-77.46-6.549-20.034-14.909-36.04-18.851-43.068-.522-.931-1.941-.504-1.866.56 1.094 15.449 2.863 68.781-19.133 119.968-9.665 22.49-7.862 46.55-1.986 67.649 8.05.367 15.783 2.242 22.875 5.448z"
        fill="#02905d" />
      <path
        d="m313.551 497c-11.143-18.275-31.245-30.485-54.216-30.485-28.808 0-53.12 19.193-60.884 45.485h162.49l6.667-15z"
        fill="#ffbd86" />
      <g>
        <path
          d="m122.255 507.778c9.908-28.281 33.585-50.086 62.995-57.366-6.913-1.71-14.14-2.626-21.582-2.626-39.112 0-72.354 25.059-84.592 59.993-.723 2.064.839 4.222 3.026 4.222h43.179c-2.186-.001-3.749-2.159-3.026-4.223z"
          fill="#f6a96c" />
      </g>
      <g>
        <path
          d="m275.644 468.641c-5.205-1.381-10.669-2.126-16.309-2.126-28.808 0-53.12 19.193-60.884 45.485h32.618c6.244-21.144 23.194-37.688 44.575-43.359z"
          fill="#f6a96c" />
      </g>
      <g>
        <path
          d="m478.269 512c2.242 0 3.773-2.246 2.984-4.344-9.042-24.035-32.231-41.141-59.428-41.141-28.808 0-53.12 19.193-60.884 45.485z"
          fill="#ffbd86" />
      </g>
      <g>
        <path
          d="m440.968 469.459c-6.041-1.909-12.47-2.944-19.143-2.944-28.808 0-53.12 19.193-60.884 45.485h38.263c5.968-20.208 21.717-36.211 41.764-42.541z"
          fill="#f6a96c" />
      </g>
    </g>
    <g>
      <circle cx="51.287" cy="398.143" fill="#62dbfb" r="20.75" />
    </g>
    <g>
      <path
        d="m47.903 398.143c0-8.355 4.949-15.538 12.067-18.827-2.644-1.222-5.579-1.923-8.683-1.923-11.46 0-20.75 9.29-20.75 20.75s9.29 20.75 20.75 20.75c3.105 0 6.039-.701 8.683-1.923-7.117-3.289-12.067-10.472-12.067-18.827z"
        fill="#01d0fb" />
    </g>
    <g>
      <circle cx="343.574" cy="445.699" fill="#62dbfb" r="20.75" />
    </g>
    <g>
      <path
        d="m342.243 445.699c0-7.95 4.476-14.848 11.04-18.333-2.898-1.538-6.2-2.417-9.709-2.417-11.46 0-20.75 9.29-20.75 20.75s9.29 20.75 20.75 20.75c3.51 0 6.811-.879 9.709-2.417-6.564-3.484-11.04-10.382-11.04-18.333z"
        fill="#01d0fb" />
    </g>
    <g>
      <circle cx="440.119" cy="238.341" fill="#62dbfb" r="20.75" />
    </g>
    <g>
      <path
        d="m437.02 238.341c0-8.299 4.884-15.44 11.925-18.759-2.681-1.264-5.665-1.991-8.825-1.991-11.46 0-20.75 9.29-20.75 20.75s9.29 20.75 20.75 20.75c3.16 0 6.144-.727 8.825-1.991-7.041-3.319-11.925-10.46-11.925-18.759z"
        fill="#01d0fb" />
    </g>
    <g>
      <circle cx="354.906" cy="111.921" fill="#62dbfb" r="20.75" />
    </g>
    <g>
      <path
        d="m352.545 111.921c0-8.154 4.714-15.189 11.555-18.581-2.774-1.376-5.888-2.169-9.194-2.169-11.46 0-20.75 9.29-20.75 20.75s9.29 20.75 20.75 20.75c3.306 0 6.42-.793 9.194-2.169-6.841-3.393-11.555-10.428-11.555-18.581z"
        fill="#01d0fb" />
    </g>
  </g>
</svg>
